<svg height="512" viewBox="0 0 58 58" width="512" xmlns="http://www.w3.org/2000/svg"><g id="Page-1" fill="none" fill-rule="evenodd"><g id="018---X-Mas" fill-rule="nonzero"><path id="Shape" d="m43 52.84v2.16c0 1.6568542-1.3431458 3-3 3h-22.01c-1.6568542 0-3-1.3431458-3-3v-2.16z" fill="#c03a2b"/><g fill="#802f34"><path id="Rectangle-path" d="m28 52.84h2v5.16h-2z"/><path id="Rectangle-path" d="m23 52.84h2v5.16h-2z"/><path id="Rectangle-path" d="m18 52.84h2v5.16h-2z"/><path id="Rectangle-path" d="m33 52.84h2v5.16h-2z"/><path id="Rectangle-path" d="m38 52.84h2v5.16h-2z"/></g><path id="Shape" d="m8 50.73v3.27c-.0032948 1.1032019-.89679813 1.9967052-2 2h-3c-1.10320187-.0032948-1.9967052-.8967981-2-2v-3.27z" fill="#c03a2b"/><path id="Shape" d="m57 50.73v3.27c-.0032948 1.1032019-.8967981 1.9967052-2 2h-3c-1.1032019-.0032948-1.9967052-.8967981-2-2v-3.27z" fill="#c03a2b"/><path id="Shape" d="m41.98 2.29 6.75 2.03c1.4994289.44880428 2.7021857 1.5738445 3.25 3.04 1.87 5.06 5.8 18.38 6.02 41.62.0053392.5338898-.2030151 1.0477507-.5786681 1.4271603-.375653.3794095-.8874154.5928664-1.4213319.5928397h-5.01c-1.100676.0000138-1.9944966-.8893377-2-1.99-.14-9.963-1.39-20.417-2.94-26.61-.0616484-.2652355-.3117527-.4425866-.5824484-.4130191s-.476616.2567292-.4795516.5290191c-.013 4.653-.025 13.91.01 27.673.007905 1.2312458-.8079 2.315984-1.993 2.65-1.981.548-6.805 1.161-14.005 1.161s-12.034-.613-14.015-1.161c-1.1851-.334016-2.000905-1.4187542-1.993-2.65.035-13.763.023-23.02.01-27.673-.0029356-.2722899-.2088559-.4994516-.4795516-.5290191s-.5208.1477836-.5824484.4130191c-1.55 6.193-2.8 16.647-2.94 26.61-.00550338 1.1006623-.89932399 1.9900138-2 1.99h-5c-.53391646.0000267-1.04567885-.2134302-1.42133186-.5928397-.37565301-.3794096-.58400731-.8932705-.57866814-1.4271603.22-23.24 4.15-36.56 6.02-41.62.54781426-1.4661555 1.75057107-2.59119572 3.25-3.04l6.75-2.03z" fill="#e64c3c"/><path id="Shape" d="m41.11 3.66c-2.799 1.866-8.71 2.34-12.11 2.34s-9.308-.472-12.11-2.34c-.8546746-.63016644-1.0678886-1.81839581-.4856325-2.70640275.582256-.88800694 1.7569759-1.16618389 2.6756325-.63359725 1.937 1.29 7.56 1.68 9.92 1.68 7.332 0 9.884-1.68 9.92-1.68.9294749-.58154693 2.1535986-.31001403 2.75.61.5960723.9091145.3458453 2.12897117-.56 2.73z" fill="#c03a2b"/><path id="Shape" d="m30 1.98v4.01c-.32.01-.66.01-1 .01s-.68 0-1-.01v-4.01c.32.02.66.02 1 .02s.68 0 1-.02z" fill="#802f34"/><path id="Shape" d="m25.81 1.87-.39 3.99c-.72-.06-1.38-.13-1.99-.22l.4-3.99c.59.09 1.25.17 1.98.22z" fill="#802f34"/><path id="Shape" d="m21.77 1.26-1.5 3.75c-.6444594-.17087134-1.278795-.37786508-1.9-.62l1.48-3.72c.6260074.23960964 1.2674631.43672364 1.92.59z" fill="#802f34"/><path id="Shape" d="m34.57 5.64c-.61.09-1.27.16-1.99.22l-.39-3.99c.73-.05 1.39-.13 1.98-.22z" fill="#802f34"/><path id="Shape" d="m39.63 4.39c-.6230497.24647505-1.2609737.45354985-1.91.62l-1.49-3.75c.6506647-.14810523 1.2891619-.34533734 1.91-.59z" fill="#802f34"/><path id="Shape" d="m18 41v-7.1l.615 1.429c.2382359.5531339.782743.9114776 1.385.9114776s1.1467641-.3583437 1.385-.9114776l.615-1.429v7.1c0 .5522847.4477153 1 1 1s1-.4477153 1-1v-9.494c-.0011936-.7149911-.5043164-1.3308621-1.2046977-1.4746666-.7003814-.1438045-1.4054738.2239918-1.6883023.8806666l-1.107 2.575-1.108-2.575c-.2819887-.6575102-.9874011-1.026134-1.6881996-.882194-.7007985.1439399-1.2038052.760766-1.2038004 1.476194v9.494c0 .5522847.4477153 1 1 1s1-.4477153 1-1z" fill="#ecf0f1"/><path id="Shape" d="m29.5 30c-1.3668818-.0038636-2.5124432 1.0325554-2.645 2.393l-.85 8.507c-.0357266.3554793.1209066.7030156.4108974.9116953.2899908.2086798.6692827.2467996.9950001.1.3257173-.1467995.548376-.456216.5841025-.8116953l.31-3.1h2.395l.31 3.1c.0511593.5090925.4783498.8974475.99.9.0333061.0019063.0666939.0019063.1 0 .2638918-.0265185.5064402-.156783.6742859-.3621362.1678457-.2053531.2472391-.4689727.2207141-.7328638l-.85-8.507c-.1301439-1.3624255-1.2763775-2.4016195-2.645-2.398zm-1 6 .341-3.408c.0323169-.3370125.3154416-.5942864.654-.5942864s.6216831.2572739.654.5942864l.351 3.408z" fill="#ecf0f1"/><path id="Shape" d="m38.5 35c-.8284271 0-1.5-.6715729-1.5-1.5s.6715729-1.5 1.5-1.5 1.5.6715729 1.5 1.5c0 .5522847.4477153 1 1 1s1-.4477153 1-1c0-1.9329966-1.5670034-3.5-3.5-3.5s-3.5 1.5670034-3.5 3.5 1.5670034 3.5 3.5 3.5c.8284271 0 1.5.6715729 1.5 1.5s-.6715729 1.5-1.5 1.5-1.5-.6715729-1.5-1.5c0-.5522847-.4477153-1-1-1s-1 .4477153-1 1c0 1.9329966 1.5670034 3.5 3.5 3.5s3.5-1.5670034 3.5-3.5-1.5670034-3.5-3.5-3.5z" fill="#ecf0f1"/><path id="Shape" d="m40 44h-22c-.5522847 0-1 .4477153-1 1s.4477153 1 1 1h22c.5522847 0 1-.4477153 1-1s-.4477153-1-1-1z" fill="#c03a2b"/><path id="Shape" d="m18 28h22c.5522847 0 1-.4477153 1-1s-.4477153-1-1-1h-22c-.5522847 0-1 .4477153-1 1s.4477153 1 1 1z" fill="#c03a2b"/><path id="Shape" d="m23.293 23.707c.3904999.3903819 1.0235001.3903819 1.414 0l4.293-4.293 4.293 4.293c.3923789.3789722 1.0160848.3735524 1.4018186-.0121814s.3911536-1.0094397.0121814-1.4018186l-4.293-4.293 4.293-4.293c.3789722-.3923789.3735524-1.0160848-.0121814-1.4018186s-1.0094397-.3911536-1.4018186-.0121814l-4.293 4.293-4.293-4.293c-.3923789-.3789722-1.0160848-.3735524-1.4018186.0121814s-.3911536 1.0094397-.0121814 1.4018186l4.293 4.293-4.293 4.293c-.3903819.3904999-.3903819 1.0235001 0 1.414z" fill="#ecf0f1"/></g></g></svg>